HIERARCHY
ROOT Hips
{
 OFFSET 0.000000 0.000000 0.000000
 CHANNELS 6 Xposition Yposition Zposition Yrotation Xrotation Zrotation
 JOINT Chest
 {
  OFFSET 0.000000 9.585900 0.002600
  CHANNELS 3 Yrotation Xrotation Zrotation
  JOINT Chest2
  {
   OFFSET 0.000000 9.601200 -0.005300
   CHANNELS 3 Yrotation Xrotation Zrotation
   JOINT Chest3
   {
    OFFSET 0.000000 9.561800 0.000000
    CHANNELS 3 Yrotation Xrotation Zrotation
    JOINT Chest4
    {
     OFFSET 0.000000 9.552100 0.000000
     CHANNELS 3 Yrotation Xrotation Zrotation
     JOINT Neck
     {
      OFFSET 0.000000 14.453000 0.000000
      CHANNELS 3 Yrotation Xrotation Zrotation
      JOINT Head
      {
       OFFSET 0.000000 8.936500 -0.011300
       CHANNELS 3 Yrotation Xrotation Zrotation
       End Site
       {
        OFFSET 0.000000 17.073600 -0.006000
       }
      }
     }
     JOINT RightCollar
     {
      OFFSET -2.921100 9.558500 0.000000
      CHANNELS 3 Yrotation Xrotation Zrotation
      JOINT RightShoulder
      {
       OFFSET -13.519700 0.000000 0.000000
       CHANNELS 3 Yrotation Xrotation Zrotation
       JOINT RightElbow
       {
        OFFSET 0.000000 -29.696600 0.000000
        CHANNELS 3 Yrotation Xrotation Zrotation
        JOINT RightWrist
        {
         OFFSET 0.000000 -24.004700 0.000000
         CHANNELS 3 Yrotation Xrotation Zrotation
         End Site
         {
          OFFSET 0.000000 -17.728500 0.000000
         }
        }
       }
      }
     }
     JOINT LeftCollar
     {
      OFFSET 2.921100 9.558500 0.000000
      CHANNELS 3 Yrotation Xrotation Zrotation
      JOINT LeftShoulder
      {
       OFFSET 13.519700 0.000000 0.000000
       CHANNELS 3 Yrotation Xrotation Zrotation
       JOINT LeftElbow
       {
        OFFSET 0.000000 -29.696600 0.000000
        CHANNELS 3 Yrotation Xrotation Zrotation
        JOINT LeftWrist
        {
         OFFSET 0.000000 -24.004700 0.000000
         CHANNELS 3 Yrotation Xrotation Zrotation
         End Site
         {
          OFFSET 0.000000 -17.728500 0.000000
         }
        }
       }
      }
     }
    }
   }
  }
 }
 JOINT RightHip
 {
  OFFSET -7.771700 -0.012900 -0.001300
  CHANNELS 3 Yrotation Xrotation Zrotation
  JOINT RightKnee
  {
   OFFSET 0.000000 -40.869800 0.001200
   CHANNELS 3 Yrotation Xrotation Zrotation
   JOINT RightAnkle
   {
    OFFSET 0.000000 -39.717900 0.002100
    CHANNELS 3 Yrotation Xrotation Zrotation
    JOINT RightToe
    {
     OFFSET 0.000000 -4.965400 11.033500
     CHANNELS 3 Yrotation Xrotation Zrotation
     End Site
     {
      OFFSET 0.000000 -1.423100 5.872300
     }
    }
   }
  }
 }
 JOINT LeftHip
 {
  OFFSET 7.771700 -0.012900 -0.001300
  CHANNELS 3 Yrotation Xrotation Zrotation
  JOINT LeftKnee
  {
   OFFSET 0.000000 -40.869800 0.001200
   CHANNELS 3 Yrotation Xrotation Zrotation
   JOINT LeftAnkle
   {
    OFFSET 0.000000 -39.717900 0.002100
    CHANNELS 3 Yrotation Xrotation Zrotation
    JOINT LeftToe
    {
     OFFSET 0.000000 -4.965400 11.033500
     CHANNELS 3 Yrotation Xrotation Zrotation
     End Site
     {
      OFFSET 0.000000 -1.423100 5.872300
     }
    }
   }
  }
 }
}
MOTION
Frames: 9
Frame Time: 0.008333
0.000000 85.388000 0.000000 0.000000 -5.767877 0.000000 0.000000 11.653817 0.000000 0.000000 -5.885947 0.000000 0.000000 -0.000000 0.000000 0.000000 -0.000000 0.000000 0.000000 12.528835 0.000000 0.000000 0.711642 0.000000 0.000000 -0.000000 0.000000 0.000000 0.000000 -90.000000 0.000000 -2.309062 0.000000 0.000000 2.309062 0.000000 0.000000 -0.000000 0.000000 0.000000 -0.000000 90.000000 0.000000 -2.309062 0.000000 0.000000 2.309062 0.000000 0.000000 8.520406 0.000000 0.000000 1.905762 0.000000 -0.000000 -4.658285 0.000000 0.000000 -0.000000 0.000000 0.000000 8.520406 0.000000 0.000000 1.905762 0.000000 -0.000000 -4.658285 0.000000 0.000000 -0.000000 0.000000
-227.851182 58.329002 -78.737376 159.336697 0.548770 -0.019979 1.718584 8.677944 0.131588 0.063111 0.454642 -0.025067 0.107364 0.820044 -0.032774 1.081431 8.173807 -0.334649 -4.443325 12.177346 -1.326146 -7.912902 -13.113819 -0.669527 4.170150 8.643483 0.561359 1.300085 -8.670939 -11.106030 -59.343050 -85.618960 85.400958 -2.446978 1.153757 -27.842788 -8.427815 5.831766 -4.423152 5.650411 -9.438403 8.568807 136.709070 -83.220854 -168.335286 -1.856988 4.966047 14.193168 -23.539152 -70.809451 16.572598 -37.656048 72.101027 -38.308364 -4.084990 -8.740610 -1.408068 -0.170145 0.495056 -0.090663 -2.217442 -73.474380 19.440726 45.558263 64.563779 38.312560 -18.228272 -8.344170 3.296180 -0.068500 -0.791519 -0.042669
-227.842468 58.327213 -78.751387 159.324115 0.510038 -0.013773 1.730351 8.710142 0.123409 0.065356 0.430988 -0.032695 0.104940 0.834216 -0.028792 1.083587 8.138443 -0.349145 -4.444488 12.189898 -1.322422 -7.921894 -13.110570 -0.665468 4.170440 8.622220 0.567046 1.293539 -8.719264 -11.144598 -59.405263 -85.562550 85.511517 -2.490981 1.163447 -27.850694 -8.404644 5.848465 -4.414007 5.643520 -9.409554 8.541075 136.765877 -83.236473 -168.420058 -1.868681 4.978415 14.191034 -23.476286 -70.782831 16.511717 -37.708369 72.126206 -38.354282 -4.079405 -8.753971 -1.409620 -0.171097 0.487718 -0.091102 -2.198973 -73.430678 19.438232 45.598358 64.578024 38.361313 -18.260306 -8.370961 3.284614 -0.071103 -0.773987 -0.044385
-227.832919 58.325114 -78.764218 159.315229 0.483884 -0.010291 1.742724 8.707989 0.111295 0.063980 0.427865 -0.032882 0.105995 0.831255 -0.029821 1.085236 8.121739 -0.357732 -4.446649 12.203192 -1.317835 -7.923405 -13.078278 -0.658273 4.169195 8.598962 0.572237 1.286702 -8.736488 -11.162322 -59.420916 -85.536655 85.554343 -2.483132 1.096926 -27.841487 -8.385575 5.862824 -4.406038 5.637232 -9.380550 8.515738 136.730087 -83.244063 -168.424420 -1.879857 4.996643 14.172297 -23.430779 -70.766381 16.465913 -37.755788 72.149958 -38.393191 -4.073925 -8.768764 -1.405320 -0.177299 0.485243 -0.095910 -2.203709 -73.399872 19.452784 45.624585 64.594404 38.394901 -18.261790 -8.391544 3.271575 -0.110588 -0.761729 -0.048153
-227.823218 58.322784 -78.776975 159.303768 0.462238 -0.004294 1.758062 8.669929 0.086930 0.062191 0.455857 -0.023973 0.104984 0.828558 -0.029042 1.088027 8.118296 -0.363569 -4.449646 12.203357 -1.316479 -7.924102 -13.045003 -0.650076 4.169888 8.581541 0.576813 1.281562 -8.757764 -11.174464 -59.424993 -85.523430 85.572261 -2.486344 1.087517 -27.837533 -8.377205 5.882793 -4.397816 5.641148 -9.372457 8.487836 136.685808 -83.255975 -168.416384 -1.886862 5.023333 14.096733 -23.408060 -70.757504 16.442979 -37.800468 72.178583 -38.437762 -4.062320 -8.774170 -1.404456 -0.192218 0.473172 -0.098748 -2.204623 -73.372873 19.464929 45.647732 64.611736 38.424664 -18.257741 -8.412020 3.255514 -0.064244 -0.745750 -0.039431
-227.811478 58.320313 -78.790111 159.298720 0.435191 -0.006128 1.768583 8.667975 0.081106 0.058905 0.468948 -0.020211 0.111123 0.774793 -0.046603 1.084786 8.174765 -0.344787 -4.453392 12.177179 -1.322832 -7.929735 -13.019974 -0.639922 4.170587 8.575905 0.578534 1.278337 -8.814431 -11.196002 -59.110978 -85.487796 85.271418 -2.459609 1.055574 -27.836427 -8.367772 5.875071 -4.397059 5.638603 -9.357059 8.478717 136.500922 -83.241896 -168.266030 -1.918903 5.055329 14.080343 -23.410426 -70.734479 16.441320 -37.838158 72.204167 -38.477922 -4.053070 -8.790833 -1.405494 -0.193709 0.472791 -0.096709 -2.222184 -73.342919 19.486952 45.668763 64.627601 38.459170 -18.239081 -8.427503 3.241862 -0.075251 -0.720794 -0.035322
-227.801933 58.317783 -78.802202 159.301926 0.416645 0.004182 1.770909 8.659095 0.064790 0.053879 0.481439 -0.017816 0.115812 0.756876 -0.050358 1.082954 8.156684 -0.357521 -4.454836 12.200489 -1.310367 -7.957484 -13.017331 -0.616183 4.175982 8.555631 0.584549 1.268661 -8.817146 -11.200140 -58.823787 -85.454137 84.997673 -2.425356 1.027901 -27.841128 -8.348364 5.886564 -4.390057 5.623908 -9.318543 8.479585 136.461792 -83.237358 -168.252208 -1.936898 5.077623 14.067104 -23.397471 -70.723611 16.417858 -37.883514 72.226691 -38.526411 -4.051102 -8.816223 -1.409045 -0.194600 0.477691 -0.094105 -2.210676 -73.321576 19.471742 45.677888 64.642473 38.485707 -18.271932 -8.434580 3.236778 -0.050085 -0.716775 -0.041378
-227.790522 58.315288 -78.813313 159.311737 0.395174 0.003448 1.769319 8.653307 0.059322 0.060582 0.457160 -0.023358 0.108966 0.776099 -0.046154 1.085894 8.113830 -0.374405 -4.461600 12.242659 -1.296603 -7.971428 -12.988999 -0.597771 4.188116 8.513747 0.582879 1.246058 -8.738538 -11.172717 -59.701396 -85.539458 85.872218 -2.466632 1.078429 -27.846394 -8.335436 5.921417 -4.378887 5.621971 -9.290885 8.465399 136.494045 -83.257058 -168.317981 -1.945463 5.091376 14.056597 -23.410335 -70.704650 16.417759 -37.930604 72.245360 -38.576145 -4.049738 -8.835587 -1.410965 -0.198728 0.478464 -0.092894 -2.268688 -73.291737 19.523347 45.673818 64.659056 38.489248 -18.287488 -8.449319 3.222929 -0.028767 -0.702896 -0.037666
-227.780076 58.312874 -78.821832 159.319218 0.383767 0.003514 1.771158 8.638193 0.050704 0.061887 0.448202 -0.026054 0.107685 0.780224 -0.044968 1.081614 8.121713 -0.371883 -4.465579 12.226910 -1.301036 -7.985474 -12.948189 -0.575264 4.195944 8.455835 0.573789 1.246565 -8.745169 -11.184230 -59.802803 -85.550113 85.968529 -2.474903 1.103174 -27.855204 -8.297017 5.869377 -4.385202 5.596746 -9.229703 8.466057 136.542606 -83.280151 -168.395407 -1.949140 5.102073 14.051122 -23.413466 -70.695044 16.412953 -37.967812 72.259779 -38.611392 -4.049388 -8.855188 -1.413432 -0.207842 0.483121 -0.092405 -2.330126 -73.271465 19.572722 45.675050 64.668759 38.497116 -18.284962 -8.460383 3.216044 -0.021188 -0.694195 -0.044195
